<?xml version="1.0" encoding="UTF-8" standalone="no"?>
<!DOCTYPE svg PUBLIC "-//W3C//DTD SVG 1.1//EN" "http://www.w3.org/Graphics/SVG/1.1/DTD/svg11.dtd">
<svg width="100%" height="100%" viewBox="0 0 800 600" version="1.1" xmlns="http://www.w3.org/2000/svg" xmlns:xlink="http://www.w3.org/1999/xlink" xml:space="preserve" xmlns:serif="http://www.serif.com/" style="fill-rule:evenodd;clip-rule:evenodd;stroke-linejoin:round;stroke-miterlimit:2;">
    <g transform="matrix(1,0,0,1,3,-37.5695)">
        <g transform="matrix(1,0,0,1,174.566,498.564)">
            <text x="0px" y="0px" style="font-family:'Marcellus-Regular', 'Marcellus', sans-serif;font-size:81px;fill:white;stroke:white;stroke-width:3px;">EscrowDapp</text>
        </g>
        <g transform="matrix(13.7168,0,0,13.1959,180.759,73.7794)">
            <path d="M30.68,19.05L28.78,19.69L27.13,10.63L31.37,8.93C31.75,8.779 32.001,8.409 32.001,8C32.001,7.451 31.549,6.999 31,6.999C30.873,6.999 30.748,7.023 30.63,7.07L25.63,9.07C25.182,9.24 24.916,9.709 25,10.18L25,10.36L22.61,11.55C22.272,11.722 21.864,11.687 21.56,11.46L19.13,9.6C18.611,9.211 17.979,9 17.33,9L14.62,9C13.87,9 13.181,9.422 12.84,10.09L11.05,10C10.877,9.993 10.704,10.031 10.55,10.11L8.88,10.94L6,10.22L6,10.09C6.043,9.675 5.823,9.275 5.45,9.09L1.45,7.09C1.328,7.039 1.198,7.013 1.066,7.013C0.517,7.013 0.066,7.465 0.066,8.013C0.066,8.364 0.25,8.689 0.55,8.87L3.94,10.57L3.12,19.63L1.32,19.03C1.217,18.996 1.109,18.979 1,18.979C0.432,18.979 -0.036,19.447 -0.036,20.015C-0.036,20.463 0.254,20.862 0.68,21L3.68,22C3.786,22.014 3.894,22.014 4,22C4.194,21.996 4.384,21.941 4.55,21.84C4.807,21.672 4.973,21.396 5,21.09L5.08,20.16L6.37,20.8C6.49,21.542 6.878,22.215 7.46,22.69L13.23,26.83C13.588,27.126 14.038,27.287 14.503,27.287C15.113,27.287 15.691,27.008 16.07,26.53C16.839,26.822 17.698,26.775 18.43,26.4L23.84,23.7C24.502,23.366 24.964,22.732 25.08,22C25.09,21.894 25.09,21.786 25.08,21.68L26.98,21.05L26.98,21.17C27.031,21.454 27.203,21.702 27.45,21.85C27.615,21.952 27.806,22.004 28,22C28.108,21.998 28.216,21.981 28.32,21.95L31.32,20.95C31.727,20.813 32.002,20.429 32.002,20C32.002,19.45 31.55,18.998 31,18.998C30.891,18.998 30.783,19.015 30.68,19.05ZM8.68,21.11C8.357,20.841 8.236,20.395 8.38,20C8.4,19.929 8.458,19.875 8.53,19.86C8.59,19.86 8.67,19.86 8.79,19.94L14.84,24.31L14.51,25.31L8.68,21.11ZM22.94,21.91L17.53,24.61C17.295,24.73 17.021,24.751 16.77,24.67C16.901,23.947 16.624,23.208 16.05,22.75L10.05,18.38C9.473,17.921 8.703,17.778 8,18C7.523,18.138 7.107,18.434 6.82,18.84L5.46,18.16C5.403,18.134 5.342,18.117 5.28,18.11L5.81,12.28L8.81,13.02L9,13C9.157,12.999 9.311,12.961 9.45,12.89L11.21,12L11.86,12L11.11,13.51C10.865,13.998 11.063,14.602 11.55,14.85L11.76,14.96C13.1,15.633 14.75,15.202 15.59,13.96L16.59,13.96L22.97,21.25C22.996,21.302 23.026,21.352 23.06,21.4C23.13,21.463 23.16,21.558 23.14,21.65C23.149,21.757 23.094,21.859 23,21.91L22.94,21.91ZM24.3,19.84L17.74,12.34C17.553,12.127 17.284,12.003 17,12L15,12C14.624,12.001 14.279,12.214 14.11,12.55L14,12.76C13.894,12.971 13.717,13.137 13.5,13.23L14.62,11L17.33,11C17.546,11 17.757,11.07 17.93,11.2L20.41,13.06C21.318,13.739 22.536,13.848 23.55,13.34L25.42,12.41L26.63,19.07L24.3,19.84Z" style="fill:white;fill-rule:nonzero;"/>
        </g>
    </g>
</svg>
